<svg xmlns="http://www.w3.org/2000/svg" viewBox="0 0 64 64" width="64" height="64">
  <rect width="64" height="64" rx="14" fill="#0f9f6e"/>
  <path fill="#ffffff" d="M18 18h28c4.4 0 8 3.4 8 7.7v12.1c0 4.2-3.6 7.7-8 7.7H31.8L20.9 52v-6.5H18c-4.4 0-8-3.4-8-7.7V25.7c0-4.3 3.6-7.7 8-7.7Z" opacity=".95"/>
  <path fill="#0f9f6e" d="M21.2 29.4c0-2.4 1.9-4.2 4.4-4.2 1.7 0 3 .7 3.8 1.8l-2.2 1.8c-.4-.6-.9-.9-1.6-.9-1 0-1.7.7-1.7 1.7v5.1c0 1 .7 1.7 1.7 1.7.7 0 1.2-.3 1.6-.9l2.2 1.7c-.8 1.2-2.1 1.9-3.8 1.9-2.5 0-4.4-1.8-4.4-4.2v-5.5Zm10.2-4h2.7v5.1h4.4v-5.1h2.7v13.3h-2.7v-5.5h-4.4v5.5h-2.7V25.4Z"/>
</svg>
